ply
format ascii 1.0
comment Triangle PLY File by Sarcastic
element vertex 135
property float x
property float y
property float z
element face 234
property list uchar int vertex_index
property uchar red
property uchar green
property uchar blue
property uchar mat
end_header
-17.9008 -3.6997 0.0000
-17.9008 -3.6997 1.9200
-17.8786 -3.7142 0.0200
-17.8786 -3.7142 1.9200
-17.3771 -5.5365 0.0000
-17.3771 -5.5365 1.9200
-17.3603 -5.5317 0.0200
-17.3603 -5.5317 1.9200
-16.0544 -3.1732 0.0000
-16.0544 -3.1732 1.7263
-16.0544 -3.1732 1.9200
-16.0490 -3.1925 0.0200
-16.0490 -3.1925 1.9200
-15.5307 -5.0100 0.0000
-15.5307 -5.0100 0.0200
-12.1546 6.7095 0.0000
-12.1546 6.7095 1.9200
-12.1324 6.6951 0.0200
-12.1324 6.6951 1.9200
-11.6308 4.8728 0.0000
-11.6308 4.8728 1.9200
-11.6141 4.8775 0.0200
-11.6141 4.8775 1.9200
-10.3082 7.2361 0.0000
-10.3082 7.2361 1.7263
-10.3082 7.2361 1.9200
-10.3027 7.2168 0.0200
-10.3027 7.2168 1.9200
-9.7844 5.3993 0.0000
-9.7844 5.3993 0.0200
-6.4095 17.1169 0.0000
-6.4095 17.1169 1.9200
-6.3872 17.1024 0.0200
-6.3872 17.1024 1.9200
-5.8857 15.2801 0.0000
-5.8857 15.2801 1.9200
-5.8690 15.2848 0.0200
-5.8690 15.2848 1.9200
-4.6728 11.6319 0.0000
-4.6728 11.6319 1.9200
-4.6506 11.6174 0.0200
-4.6506 11.6174 1.9200
-4.5631 17.6434 0.0000
-4.5631 17.6434 1.7263
-4.5631 17.6434 1.9200
-4.5576 17.6241 0.0200
-4.5576 17.6241 1.9200
-4.1490 9.7951 0.0000
-4.1490 9.7951 1.9200
-4.1323 9.7999 0.0200
-4.1323 9.7999 1.9200
-4.0393 15.8066 0.0000
-4.0393 15.8066 0.0200
-2.9361 6.1469 0.0000
-2.9361 6.1469 1.9200
-2.9139 6.1325 0.0200
-2.9139 6.1325 1.9200
-2.8264 12.1584 0.0000
-2.8264 12.1584 1.7263
-2.8264 12.1584 1.9200
-2.8209 12.1392 0.0200
-2.8209 12.1392 1.9200
-2.4123 4.3101 0.0000
-2.4123 4.3101 1.9200
-2.3956 4.3149 0.0200
-2.3956 4.3149 1.9200
-2.3026 10.3216 0.0000
-2.3026 10.3216 0.0200
-1.1995 0.6620 0.0000
-1.1995 0.6620 1.9200
-1.1772 0.6475 0.0200
-1.1772 0.6475 1.9200
-1.0897 6.6734 0.0000
-1.0897 6.6734 1.7263
-1.0897 6.6734 1.9200
-1.0842 6.6542 0.0200
-1.0842 6.6542 1.9200
-0.6757 -1.1748 0.0000
-0.6757 -1.1748 1.9200
-0.6590 -1.1700 0.0200
-0.6590 -1.1700 1.9200
-0.5660 4.8367 0.0000
-0.5660 4.8367 0.0200
0.6469 1.1885 0.0000
0.6469 1.1885 1.7263
0.6469 1.1885 1.9200
0.6524 1.1692 0.0200
0.6524 1.1692 1.9200
1.1707 -0.6483 0.0000
1.1707 -0.6483 0.0200
3.3707 -1.8603 0.0000
3.3707 -1.8603 1.9200
3.3930 -1.8747 0.0200
3.3930 -1.8747 1.9200
3.8945 -3.6970 0.0000
3.8945 -3.6970 1.9200
3.9113 -3.6923 0.0200
3.9113 -3.6923 1.9200
5.2171 -1.3337 0.0000
5.2171 -1.3337 1.7263
5.2171 -1.3337 1.9200
5.2226 -1.3530 0.0200
5.2226 -1.3530 1.9200
5.7409 -3.1705 0.0000
5.7409 -3.1705 0.0200
7.9410 -4.3825 0.0000
7.9410 -4.3825 1.9200
7.9632 -4.3969 0.0200
7.9632 -4.3969 1.9200
8.4647 -6.2192 0.0000
8.4647 -6.2192 1.9200
8.4815 -6.2145 0.0200
8.4815 -6.2145 1.9200
9.7874 -3.8559 0.0000
9.7874 -3.8559 1.7263
9.7874 -3.8559 1.9200
9.7928 -3.8752 0.0200
9.7928 -3.8752 1.9200
10.3111 -5.6927 0.0000
10.3111 -5.6927 0.0200
12.5112 -6.9047 0.0000
12.5112 -6.9047 1.9200
12.5334 -6.9191 0.0200
12.5334 -6.9191 1.9200
13.0350 -8.7415 0.0000
13.0350 -8.7415 1.9200
13.0517 -8.7367 0.0200
13.0517 -8.7367 1.9200
14.3576 -6.3782 0.0000
14.3576 -6.3782 1.7263
14.3576 -6.3782 1.9200
14.3631 -6.3974 0.0200
14.3631 -6.3974 1.9200
14.8813 -8.2149 0.0000
14.8813 -8.2149 0.0200
3 121 124 125 255 255 255 0
3 124 121 120 255 255 255 0
3 106 109 110 255 255 255 0
3 109 106 105 255 255 255 0
3 1 4 5 255 255 255 0
3 4 1 0 255 255 255 0
3 94 91 90 255 255 255 0
3 91 94 95 255 255 255 0
3 69 77 78 255 255 255 0
3 77 69 68 255 255 255 0
3 54 62 63 255 255 255 0
3 62 54 53 255 255 255 0
3 39 47 48 255 255 255 0
3 47 39 38 255 255 255 0
3 31 34 35 255 255 255 0
3 34 31 30 255 255 255 0
3 19 16 15 255 255 255 0
3 16 19 20 255 255 255 0
3 129 121 130 255 255 255 0
3 128 121 129 255 255 255 0
3 121 128 120 255 255 255 0
3 99 91 100 255 255 255 0
3 98 91 99 255 255 255 0
3 91 98 90 255 255 255 0
3 84 69 85 255 255 255 0
3 83 69 84 255 255 255 0
3 69 83 68 255 255 255 0
3 73 54 74 255 255 255 0
3 72 54 73 255 255 255 0
3 54 72 53 255 255 255 0
3 58 39 59 255 255 255 0
3 57 39 58 255 255 255 0
3 39 57 38 255 255 255 0
3 43 31 44 255 255 255 0
3 42 31 43 255 255 255 0
3 31 42 30 255 255 255 0
3 114 106 115 255 255 255 0
3 113 106 114 255 255 255 0
3 106 113 105 255 255 255 0
3 9 1 10 255 255 255 0
3 8 1 9 255 255 255 0
3 1 8 0 255 255 255 0
3 24 16 25 255 255 255 0
3 23 16 24 255 255 255 0
3 16 23 15 255 255 255 0
3 128 124 120 255 255 255 0
3 4 8 13 255 255 255 0
3 19 23 28 255 255 255 0
3 94 98 103 255 255 255 0
3 62 72 81 255 255 255 0
3 72 62 53 255 255 255 0
3 83 77 68 255 255 255 0
3 77 83 88 255 255 255 0
3 34 42 51 255 255 255 0
3 47 57 66 255 255 255 0
3 42 34 30 255 255 255 0
3 57 47 38 255 255 255 0
3 113 109 105 255 255 255 0
3 109 113 118 255 255 255 0
3 98 94 90 255 255 255 0
3 8 4 0 255 255 255 0
3 23 19 15 255 255 255 0
3 124 128 133 255 255 255 0
3 11 6 14 255 255 255 0
3 49 60 40 255 255 255 0
3 6 11 2 255 255 255 0
3 60 49 67 255 255 255 0
3 126 131 122 255 255 255 0
3 101 96 104 255 255 255 0
3 75 64 82 255 255 255 0
3 116 111 119 255 255 255 0
3 86 79 89 255 255 255 0
3 111 116 107 255 255 255 0
3 96 101 92 255 255 255 0
3 79 86 70 255 255 255 0
3 36 45 32 255 255 255 0
3 64 75 55 255 255 255 0
3 21 26 17 255 255 255 0
3 131 126 134 255 255 255 0
3 26 21 29 255 255 255 0
3 45 36 52 255 255 255 0
3 18 20 22 255 255 255 0
3 56 63 65 255 255 255 0
3 93 95 97 255 255 255 0
3 71 78 80 255 255 255 0
3 41 48 50 255 255 255 0
3 33 35 37 255 255 255 0
3 108 110 112 255 255 255 0
3 123 125 127 255 255 255 0
3 3 5 7 255 255 255 0
3 125 123 121 255 255 255 0
3 35 33 31 255 255 255 0
3 78 71 69 255 255 255 0
3 95 93 91 255 255 255 0
3 63 56 54 255 255 255 0
3 20 18 16 255 255 255 0
3 5 3 1 255 255 255 0
3 110 108 106 255 255 255 0
3 48 41 39 255 255 255 0
3 44 33 46 255 255 255 0
3 25 18 27 255 255 255 0
3 10 3 12 255 255 255 0
3 74 56 76 255 255 255 0
3 100 93 102 255 255 255 0
3 85 71 87 255 255 255 0
3 115 108 117 255 255 255 0
3 130 123 132 255 255 255 0
3 59 41 61 255 255 255 0
3 33 44 31 255 255 255 0
3 56 74 54 255 255 255 0
3 41 59 39 255 255 255 0
3 123 130 121 255 255 255 0
3 71 85 69 255 255 255 0
3 93 100 91 255 255 255 0
3 18 25 16 255 255 255 0
3 108 115 106 255 255 255 0
3 3 10 1 255 255 255 0
3 5 6 7 255 255 255 0
3 4 6 5 255 255 255 0
3 110 111 112 255 255 255 0
3 109 111 110 255 255 255 0
3 78 79 80 255 255 255 0
3 77 79 78 255 255 255 0
3 63 64 65 255 255 255 0
3 62 64 63 255 255 255 0
3 34 52 36 255 255 255 0
3 47 67 49 255 255 255 0
3 124 134 126 255 255 255 0
3 40 61 41 255 255 255 0
3 61 40 60 255 255 255 0
3 117 107 116 255 255 255 0
3 107 117 108 255 255 255 0
3 119 109 118 255 255 255 0
3 109 119 111 255 255 255 0
3 19 29 21 255 255 255 0
3 29 19 28 255 255 255 0
3 55 76 56 255 255 255 0
3 76 55 75 255 255 255 0
3 2 12 3 255 255 255 0
3 12 2 11 255 255 255 0
3 87 70 86 255 255 255 0
3 70 87 71 255 255 255 0
3 14 4 13 255 255 255 0
3 89 77 88 255 255 255 0
3 92 102 93 255 255 255 0
3 102 92 101 255 255 255 0
3 77 89 79 255 255 255 0
3 94 104 96 255 255 255 0
3 52 34 51 255 255 255 0
3 67 47 66 255 255 255 0
3 62 82 64 255 255 255 0
3 17 27 18 255 255 255 0
3 27 17 26 255 255 255 0
3 82 62 81 255 255 255 0
3 104 94 103 255 255 255 0
3 122 132 123 255 255 255 0
3 132 122 131 255 255 255 0
3 134 124 133 255 255 255 0
3 4 14 6 255 255 255 0
3 32 46 33 255 255 255 0
3 46 32 45 255 255 255 0
3 20 21 22 255 255 255 0
3 19 21 20 255 255 255 0
3 95 96 97 255 255 255 0
3 94 96 95 255 255 255 0
3 125 126 127 255 255 255 0
3 124 126 125 255 255 255 0
3 35 36 37 255 255 255 0
3 34 36 35 255 255 255 0
3 48 49 50 255 255 255 0
3 47 49 48 255 255 255 0
3 130 132 129 255 255 255 0
3 132 128 129 255 255 255 0
3 131 128 132 255 255 255 0
3 44 46 43 255 255 255 0
3 46 42 43 255 255 255 0
3 45 42 46 255 255 255 0
3 25 27 24 255 255 255 0
3 27 23 24 255 255 255 0
3 26 23 27 255 255 255 0
3 74 76 73 255 255 255 0
3 76 72 73 255 255 255 0
3 75 72 76 255 255 255 0
3 128 134 133 255 255 255 0
3 127 122 123 255 255 255 0
3 122 127 126 255 255 255 0
3 134 128 131 255 255 255 0
3 2 7 6 255 255 255 0
3 7 2 3 255 255 255 0
3 37 32 33 255 255 255 0
3 32 37 36 255 255 255 0
3 42 52 51 255 255 255 0
3 72 82 81 255 255 255 0
3 67 57 60 255 255 255 0
3 82 72 75 255 255 255 0
3 89 83 86 255 255 255 0
3 70 80 79 255 255 255 0
3 80 70 71 255 255 255 0
3 22 17 18 255 255 255 0
3 17 22 21 255 255 255 0
3 23 29 28 255 255 255 0
3 50 40 41 255 255 255 0
3 40 50 49 255 255 255 0
3 65 55 56 255 255 255 0
3 55 65 64 255 255 255 0
3 57 67 66 255 255 255 0
3 83 89 88 255 255 255 0
3 97 92 93 255 255 255 0
3 92 97 96 255 255 255 0
3 52 42 45 255 255 255 0
3 119 113 116 255 255 255 0
3 104 98 101 255 255 255 0
3 98 104 103 255 255 255 0
3 14 8 11 255 255 255 0
3 112 107 108 255 255 255 0
3 107 112 111 255 255 255 0
3 113 119 118 255 255 255 0
3 29 23 26 255 255 255 0
3 8 14 13 255 255 255 0
3 85 87 84 255 255 255 0
3 87 83 84 255 255 255 0
3 86 83 87 255 255 255 0
3 100 102 99 255 255 255 0
3 102 98 99 255 255 255 0
3 101 98 102 255 255 255 0
3 115 117 114 255 255 255 0
3 117 113 114 255 255 255 0
3 116 113 117 255 255 255 0
3 59 61 58 255 255 255 0
3 61 57 58 255 255 255 0
3 60 57 61 255 255 255 0
3 10 12 9 255 255 255 0
3 12 8 9 255 255 255 0
3 11 8 12 255 255 255 0
