ply
format ascii 1.0
comment Triangle PLY File by Sarcastic
element vertex 135
property float x
property float y
property float z
element face 234
property list uchar int vertex_index
property uchar red
property uchar green
property uchar blue
property uchar mat
end_header
-16.9982 0.0000 0.0000
-16.9982 0.0000 0.0200
-15.6661 -1.3407 0.0200
-15.6661 -1.3407 1.9200
-15.6520 -1.3549 0.0000
-15.6520 -1.3549 1.7263
-15.6520 -1.3549 1.9200
-15.6486 1.3410 0.0200
-15.6486 1.3410 1.9200
-15.6362 1.3533 0.0000
-15.6362 1.3533 1.9200
-14.3164 0.0003 0.0200
-14.3164 0.0003 1.9200
-14.2900 -0.0016 0.0000
-14.2900 -0.0016 1.9200
-11.7782 0.0006 0.0000
-11.7782 0.0006 0.0200
-10.4461 -1.3401 0.0200
-10.4461 -1.3401 1.9200
-10.4320 -1.3543 0.0000
-10.4320 -1.3543 1.7263
-10.4320 -1.3543 1.9200
-10.4286 1.3416 0.0200
-10.4286 1.3416 1.9200
-10.4162 1.3539 0.0000
-10.4162 1.3539 1.9200
-9.0964 0.0009 0.0200
-9.0964 0.0009 1.9200
-9.0700 -0.0010 0.0000
-9.0700 -0.0010 1.9200
-6.5582 0.0012 0.0000
-6.5582 0.0012 0.0200
-5.2261 -1.3395 0.0200
-5.2261 -1.3395 1.9200
-5.2120 -1.3537 0.0000
-5.2120 -1.3537 1.7263
-5.2120 -1.3537 1.9200
-5.2086 1.3422 0.0200
-5.2086 1.3422 1.9200
-5.1962 1.3545 0.0000
-5.1962 1.3545 1.9200
-3.8764 0.0015 0.0200
-3.8764 0.0015 1.9200
-3.8500 -0.0004 0.0000
-3.8500 -0.0004 1.9200
-1.3382 0.0018 0.0000
-1.3382 0.0018 0.0200
-0.0061 -1.3389 0.0200
-0.0061 -1.3389 1.9200
0.0080 -1.3531 0.0000
0.0080 -1.3531 1.7263
0.0080 -1.3531 1.9200
0.0114 1.3428 0.0200
0.0114 1.3428 1.9200
0.0238 1.3551 0.0000
0.0238 1.3551 1.9200
1.3436 0.0021 0.0200
1.3436 0.0021 1.9200
1.3700 0.0002 0.0000
1.3700 0.0002 1.9200
2.8329 -3.9608 0.0000
2.8329 -3.9608 0.0200
4.1651 -5.3015 0.0200
4.1651 -5.3015 1.9200
4.1792 -5.3157 0.0000
4.1792 -5.3157 1.7263
4.1792 -5.3157 1.9200
4.1826 -2.6198 0.0200
4.1826 -2.6198 1.9200
4.1949 -2.6075 0.0000
4.1949 -2.6075 1.9200
5.5147 -3.9605 0.0200
5.5147 -3.9605 1.9200
5.5412 -3.9624 0.0000
5.5412 -3.9624 1.9200
7.0041 -7.9234 0.0000
7.0041 -7.9234 0.0200
8.3363 -9.2641 0.0200
8.3363 -9.2641 1.9200
8.3504 -9.2783 0.0000
8.3504 -9.2783 1.7263
8.3504 -9.2783 1.9200
8.3538 -6.5824 0.0200
8.3538 -6.5824 1.9200
8.3661 -6.5701 0.0000
8.3661 -6.5701 1.9200
9.6859 -7.9231 0.0200
9.6859 -7.9231 1.9200
9.7124 -7.9250 0.0000
9.7124 -7.9250 1.9200
11.1753 -11.8860 0.0000
11.1753 -11.8860 0.0200
11.1753 0.0018 0.0000
11.1753 0.0018 0.0200
11.1753 11.8918 0.0000
11.1753 11.8918 0.0200
12.5074 -13.2267 0.0200
12.5074 -13.2267 1.9200
12.5074 -1.3389 0.0200
12.5074 -1.3389 1.9200
12.5074 10.5511 0.0200
12.5074 10.5511 1.9200
12.5215 -13.2409 0.0000
12.5215 -13.2409 1.7263
12.5215 -13.2409 1.9200
12.5215 -1.3531 0.0000
12.5215 -1.3531 1.7263
12.5215 -1.3531 1.9200
12.5215 10.5369 0.0000
12.5215 10.5369 1.7263
12.5215 10.5369 1.9200
12.5250 -10.5450 0.0200
12.5250 -10.5450 1.9200
12.5250 1.3428 0.0200
12.5250 1.3428 1.9200
12.5250 13.2328 0.0200
12.5250 13.2328 1.9200
12.5373 -10.5327 0.0000
12.5373 -10.5327 1.9200
12.5373 1.3551 0.0000
12.5373 1.3551 1.9200
12.5373 13.2451 0.0000
12.5373 13.2451 1.9200
13.8571 -11.8857 0.0200
13.8571 -11.8857 1.9200
13.8571 0.0021 0.0200
13.8571 0.0021 1.9200
13.8571 11.8921 0.0200
13.8571 11.8921 1.9200
13.8835 -11.8876 0.0000
13.8835 -11.8876 1.9200
13.8835 0.0002 0.0000
13.8835 0.0002 1.9200
13.8835 11.8902 0.0000
13.8835 11.8902 1.9200
3 97 103 104 255 255 255 0
3 97 102 103 255 255 255 0
3 102 97 96 255 255 255 0
3 101 109 110 255 255 255 0
3 101 108 109 255 255 255 0
3 108 101 100 255 255 255 0
3 33 35 36 255 255 255 0
3 33 34 35 255 255 255 0
3 34 33 32 255 255 255 0
3 99 106 107 255 255 255 0
3 99 105 106 255 255 255 0
3 105 99 98 255 255 255 0
3 63 65 66 255 255 255 0
3 63 64 65 255 255 255 0
3 64 63 62 255 255 255 0
3 75 77 76 255 255 255 0
3 48 50 51 255 255 255 0
3 48 49 50 255 255 255 0
3 49 48 47 255 255 255 0
3 26 23 22 255 255 255 0
3 23 26 27 255 255 255 0
3 102 96 90 255 255 255 0
3 34 32 30 255 255 255 0
3 64 62 60 255 255 255 0
3 86 83 82 255 255 255 0
3 83 86 87 255 255 255 0
3 127 116 115 255 255 255 0
3 116 127 128 255 255 255 0
3 71 68 67 255 255 255 0
3 68 71 72 255 255 255 0
3 49 47 45 255 255 255 0
3 56 53 52 255 255 255 0
3 53 56 57 255 255 255 0
3 60 62 61 255 255 255 0
3 45 47 46 255 255 255 0
3 41 38 37 255 255 255 0
3 38 41 42 255 255 255 0
3 30 32 31 255 255 255 0
3 15 17 16 255 255 255 0
3 8 11 12 255 255 255 0
3 11 8 7 255 255 255 0
3 0 2 1 255 255 255 0
3 79 77 75 255 255 255 0
3 108 100 94 255 255 255 0
3 4 2 0 255 255 255 0
3 105 98 92 255 255 255 0
3 19 17 15 255 255 255 0
3 94 100 95 255 255 255 0
3 125 114 113 255 255 255 0
3 114 125 126 255 255 255 0
3 92 98 93 255 255 255 0
3 112 123 124 255 255 255 0
3 123 112 111 255 255 255 0
3 90 96 91 255 255 255 0
3 3 5 6 255 255 255 0
3 3 4 5 255 255 255 0
3 4 3 2 255 255 255 0
3 18 20 21 255 255 255 0
3 18 19 20 255 255 255 0
3 19 18 17 255 255 255 0
3 78 80 81 255 255 255 0
3 78 79 80 255 255 255 0
3 79 78 77 255 255 255 0
3 10 7 8 255 255 255 0
3 9 7 10 255 255 255 0
3 55 52 53 255 255 255 0
3 54 52 55 255 255 255 0
3 121 95 115 255 255 255 0
3 84 76 82 255 255 255 0
3 39 31 37 255 255 255 0
3 119 93 113 255 255 255 0
3 76 84 75 255 255 255 0
3 99 125 98 255 255 255 0
3 125 99 126 255 255 255 0
3 127 101 128 255 255 255 0
3 101 127 100 255 255 255 0
3 46 54 45 255 255 255 0
3 33 41 32 255 255 255 0
3 41 33 42 255 255 255 0
3 31 39 30 255 255 255 0
3 18 26 17 255 255 255 0
3 26 18 27 255 255 255 0
3 1 9 0 255 255 255 0
3 54 46 52 255 255 255 0
3 123 97 124 255 255 255 0
3 97 123 96 255 255 255 0
3 78 86 77 255 255 255 0
3 86 78 87 255 255 255 0
3 93 119 92 255 255 255 0
3 63 71 62 255 255 255 0
3 71 63 72 255 255 255 0
3 56 48 57 255 255 255 0
3 48 56 47 255 255 255 0
3 69 61 67 255 255 255 0
3 24 16 22 255 255 255 0
3 9 1 7 255 255 255 0
3 117 91 111 255 255 255 0
3 91 117 90 255 255 255 0
3 61 69 60 255 255 255 0
3 95 121 94 255 255 255 0
3 16 24 15 255 255 255 0
3 3 11 2 255 255 255 0
3 11 3 12 255 255 255 0
3 25 22 23 255 255 255 0
3 24 22 25 255 255 255 0
3 118 111 112 255 255 255 0
3 117 111 118 255 255 255 0
3 70 67 68 255 255 255 0
3 69 67 70 255 255 255 0
3 40 37 38 255 255 255 0
3 39 37 40 255 255 255 0
3 85 82 83 255 255 255 0
3 84 82 85 255 255 255 0
3 120 113 114 255 255 255 0
3 119 113 120 255 255 255 0
3 122 115 116 255 255 255 0
3 121 115 122 255 255 255 0
3 4 9 13 255 255 255 0
3 84 79 75 255 255 255 0
3 79 84 88 255 255 255 0
3 39 34 30 255 255 255 0
3 19 24 28 255 255 255 0
3 105 119 131 255 255 255 0
3 108 121 133 255 255 255 0
3 49 54 58 255 255 255 0
3 54 49 45 255 255 255 0
3 102 117 129 255 255 255 0
3 34 39 43 255 255 255 0
3 64 69 73 255 255 255 0
3 9 4 0 255 255 255 0
3 69 64 60 255 255 255 0
3 121 108 94 255 255 255 0
3 24 19 15 255 255 255 0
3 119 105 92 255 255 255 0
3 117 102 90 255 255 255 0
3 22 17 26 255 255 255 0
3 77 82 76 255 255 255 0
3 96 111 91 255 255 255 0
3 111 96 123 255 255 255 0
3 32 37 31 255 255 255 0
3 62 67 61 255 255 255 0
3 67 62 71 255 255 255 0
3 47 52 46 255 255 255 0
3 52 47 56 255 255 255 0
3 37 32 41 255 255 255 0
3 113 98 125 255 255 255 0
3 7 2 11 255 255 255 0
3 2 7 1 255 255 255 0
3 98 113 93 255 255 255 0
3 17 22 16 255 255 255 0
3 82 77 86 255 255 255 0
3 100 115 95 255 255 255 0
3 115 100 127 255 255 255 0
3 12 10 8 255 255 255 0
3 87 85 83 255 255 255 0
3 72 70 68 255 255 255 0
3 42 40 38 255 255 255 0
3 57 55 53 255 255 255 0
3 128 122 116 255 255 255 0
3 27 25 23 255 255 255 0
3 126 120 114 255 255 255 0
3 124 118 112 255 255 255 0
3 10 12 14 255 255 255 0
3 120 126 132 255 255 255 0
3 85 87 89 255 255 255 0
3 40 42 44 255 255 255 0
3 55 57 59 255 255 255 0
3 122 128 134 255 255 255 0
3 118 124 130 255 255 255 0
3 70 72 74 255 255 255 0
3 25 27 29 255 255 255 0
3 107 126 99 255 255 255 0
3 36 42 33 255 255 255 0
3 110 128 101 255 255 255 0
3 81 87 78 255 255 255 0
3 51 57 48 255 255 255 0
3 21 27 18 255 255 255 0
3 66 72 63 255 255 255 0
3 6 12 3 255 255 255 0
3 104 124 97 255 255 255 0
3 12 6 14 255 255 255 0
3 128 110 134 255 255 255 0
3 124 104 130 255 255 255 0
3 87 81 89 255 255 255 0
3 126 107 132 255 255 255 0
3 72 66 74 255 255 255 0
3 57 51 59 255 255 255 0
3 42 36 44 255 255 255 0
3 27 21 29 255 255 255 0
3 80 89 81 255 255 255 0
3 79 89 80 255 255 255 0
3 89 79 88 255 255 255 0
3 20 29 21 255 255 255 0
3 19 29 20 255 255 255 0
3 29 19 28 255 255 255 0
3 35 44 36 255 255 255 0
3 34 44 35 255 255 255 0
3 44 34 43 255 255 255 0
3 50 59 51 255 255 255 0
3 49 59 50 255 255 255 0
3 59 49 58 255 255 255 0
3 65 74 66 255 255 255 0
3 64 74 65 255 255 255 0
3 74 64 73 255 255 255 0
3 106 132 107 255 255 255 0
3 105 132 106 255 255 255 0
3 132 105 131 255 255 255 0
3 5 14 6 255 255 255 0
3 4 14 5 255 255 255 0
3 14 4 13 255 255 255 0
3 109 134 110 255 255 255 0
3 108 134 109 255 255 255 0
3 134 108 133 255 255 255 0
3 103 130 104 255 255 255 0
3 102 130 103 255 255 255 0
3 130 102 129 255 255 255 0
3 44 39 40 255 255 255 0
3 39 44 43 255 255 255 0
3 74 69 70 255 255 255 0
3 69 74 73 255 255 255 0
3 121 134 133 255 255 255 0
3 134 121 122 255 255 255 0
3 14 9 10 255 255 255 0
3 9 14 13 255 255 255 0
3 54 59 58 255 255 255 0
3 59 54 55 255 255 255 0
3 84 89 88 255 255 255 0
3 89 84 85 255 255 255 0
3 29 24 25 255 255 255 0
3 24 29 28 255 255 255 0
3 117 130 129 255 255 255 0
3 130 117 118 255 255 255 0
3 119 132 131 255 255 255 0
3 132 119 120 255 255 255 0
